<svg xmlns="http://www.w3.org/2000/svg" xmlns:xlink="http://www.w3.org/1999/xlink" xmlns:v="http://vecta.io" width="102" height="121" viewBox="0 0 102 121" ><style><![CDATA[svg{stroke:#000;stroke-linecap:round;stroke-linejoin:round;fill:#fff;fill-rule:evenodd;font-family:Roboto;font-size:14px;text-anchor:middle} svg text{stroke:none}]]></style><defs><style>@import url("https://fonts.googleapis.com/css?family=Alfa+Slab+One");</style></defs><g transform="translate(0.5 0.5)"><g ><g id="jwqsr32vh1" transform="translate(21.5 0)"><path d="M 51 18 L 49.9 18 L 49.9 11.6 C 49.9 11.3 49.8 11.1 49.6 10.9 C 49.6 10.9 49.5 10.8 49.5 10.8 L 49.5 5.6 C 49.5 5.1 49.1 4.7 48.6 4.6 L 48.6 1 C 48.6 0.4 48.2 0 47.6 0 L 46.4 0 C 45.8 0 45.4 0.4 45.4 1 L 45.4 4.6 C 44.9 4.6 44.5 5.1 44.5 5.6 L 44.5 10.8 C 44.2 11 44.1 11.3 44.1 11.6 L 44.1 18 L 5.7 18 C 2.6 18 0 20.5 0 23.7 L 1.7 78.1 C 1.7 81.2 4.2 83.8 7.4 83.8 L 7.8 83.8 L 7.8 85.9 C 7.8 86.6 8.4 87.2 9.1 87.2 L 47.9 87.2 C 48.6 87.2 49.2 86.6 49.2 85.9 L 49.2 83.8 L 49.2 83.8 C 52.3 83.8 54.9 81.3 54.9 78.2 L 56.6 23.7 C 56.6 20.6 54.1 18 50.9 18 Z M 46.5 6.6 L 47.5 6.6 L 47.5 10.5 L 46.5 10.5 L 46.5 6.6 Z M 46.1 12.6 L 48 12.6 L 48 17.5 L 46.1 17.5 L 46.1 12.6 Z M 52.3 78.1 C 52.3 79.7 51 81.1 49.3 81.1 L 7.4 81.1 C 5.8 81.1 4.4 79.8 4.4 78.1 L 2.7 23.7 C 2.7 22.1 4 20.7 5.7 20.7 L 51.1 20.7 C 52.7 20.7 54.1 22 54.1 23.7 L 52.4 78.2 Z" stroke="none" fill="#d159c1" fill-rule="nonzero" stroke-width="1.000005722033165"/></g><g id="jwqsr32yh2" transform="translate(35.3 29.5)"><path d="M 14.7 29.4 C 22.8 29.4 29.4 22.8 29.4 14.7 C 29.4 6.6 22.8 0 14.7 0 C 6.6 0 0 6.6 0 14.7 C 0 22.8 6.6 29.4 14.7 29.4 Z M 14.7 2.6 C 21.4 2.6 26.8 8 26.8 14.7 C 26.8 21.4 21.4 26.8 14.7 26.8 C 8 26.8 2.6 21.4 2.6 14.7 C 2.6 8 8 2.6 14.7 2.6 Z" stroke="none" fill="#d159c1" fill-rule="nonzero" stroke-width="1.000005722033165"/></g><g id="jwqsr32zh3" transform="translate(46.9 41.1)"><path d="M 0 3.1 C 0 1.3826 1.3826 0 3.1 0 C 4.8174 0 6.2 1.3826 6.2 3.1 C 6.2 4.8174 4.8174 6.2 3.1 6.2 C 1.3826 6.2 0 4.8174 0 3.1 Z" stroke="#d159c1" fill="#d159c1" fill-rule="nonzero" stroke-width="1.000005722033165"/></g><g id="jwqsr330h4" transform="translate(63.8 69)"><path d="M 4.1 0 C 1.8 0 0 1.9 0 4.1 C 0 6.4 1.9 8.2 4.1 8.2 C 6.3 8.2 8.2 6.3 8.2 4.1 C 8.2 1.8 6.3 0 4.1 0 Z M 4.1 5.6 C 3.3 5.6 2.6 4.9 2.6 4.1 C 2.6 3.3 3.3 2.6 4.1 2.6 C 4.9 2.6 5.6 3.3 5.6 4.1 C 5.6 4.9 4.9 5.6 4.1 5.6 Z" stroke="none" fill="#d159c1" fill-rule="nonzero" stroke-width="1.000005722033165"/></g><g id="jwqsr331h5" transform="translate(27.6 69.3)"><path d="M 4.1 0 C 1.8 0 0 1.9 0 4.1 C 0 6.3 1.9 8.2 4.1 8.2 C 6.4 8.2 8.2 6.3 8.2 4.1 C 8.2 1.9 6.3 0 4.1 0 Z M 4.1 5.6 C 3.3 5.6 2.6 4.9 2.6 4.1 C 2.6 3.3 3.3 2.6 4.1 2.6 C 4.9 2.6 5.6 3.3 5.6 4.1 C 5.6 4.9 4.9 5.6 4.1 5.6 Z" stroke="none" fill="#d159c1" fill-rule="nonzero" stroke-width="1.000005722033165"/></g><g id="jwqsr331h6" transform="translate(36.9 68.1)"><path d="M 24.6 0 L 1.3 0 C 0.6 0 0 0.6 0 1.3 L 0 8.9 C 0 9.6 0.6 10.2 1.3 10.2 L 24.6 10.2 C 25.3 10.2 25.9 9.6 25.9 8.9 L 25.9 1.3 C 25.9 0.6 25.3 0 24.6 0 Z M 23.3 7.6 L 22.3 7.6 L 22.3 6.8 C 22.3 6.4 22 6.1 21.6 6.1 C 21.2 6.1 20.9 6.4 20.9 6.8 L 20.9 7.6 L 17.9 7.6 L 17.9 6.8 C 17.9 6.4 17.6 6.1 17.2 6.1 C 16.8 6.1 16.5 6.4 16.5 6.8 L 16.5 7.6 L 13.5 7.6 L 13.5 6.8 C 13.5 6.4 13.2 6.1 12.8 6.1 C 12.4 6.1 12.1 6.4 12.1 6.8 L 12.1 7.6 L 9.1 7.6 L 9.1 4.8 C 9.1 4.4 8.8 4.1 8.4 4.1 C 8 4.1 7.7 4.4 7.7 4.8 L 7.7 7.6 L 4.7 7.6 L 4.7 6.8 C 4.7 6.4 4.4 6.1 4 6.1 C 3.6 6.1 3.3 6.4 3.3 6.8 L 3.3 7.6 L 2.3 7.6 L 2.3 2.7 L 23 2.7 L 23 7.6 Z" stroke="none" fill="#d159c1" fill-rule="nonzero" stroke-width="1.000005722033165"/></g><g id="jwqsr332h7" transform="translate(0 93.5)"><g>
<text fill="#ffffff" fill-opacity="1" font-weight="bold" font-family="Alfa Slab One"><tspan x="5" y="11.62">(hdtgm)LIST</tspan></text></g></g></g></g></svg>